<svg width="44" height="44" viewBox="0 0 44 44" fill="none" xmlns="http://www.w3.org/2000/svg">
<path d="M22 6.875C16.335 6.875 11.88 11.1788 11.2571 16.6719C10.059 16.8649 8.93538 17.3783 8.00518 18.1577C7.07498 18.9372 6.37281 19.9536 5.973 21.0994C2.5905 22.0743 0 25.091 0 28.875C0 33.4455 3.6795 37.125 8.25 37.125H35.75C40.3205 37.125 44 33.4455 44 28.875C44 26.455 42.8244 24.288 41.1208 22.7728C40.8018 17.941 36.9476 14.0855 32.098 13.8353C30.4425 9.80788 26.6448 6.875 22 6.875ZM22 9.625C25.7978 9.625 28.8337 12.0587 29.9062 15.51L30.2087 16.5H31.625C35.4131 16.5 38.5 19.5869 38.5 23.375V24.0625L39.0583 24.4929C39.732 25.0092 40.2795 25.6721 40.6592 26.4313C41.0389 27.1905 41.2409 28.0262 41.25 28.875C41.25 32.0045 38.8795 34.375 35.75 34.375H8.25C5.1205 34.375 2.75 32.0045 2.75 28.875C2.75 26.0975 4.74375 23.9415 7.26 23.5042L8.16337 23.3324L8.33525 22.429C8.74775 20.5741 10.3895 19.25 12.375 19.25H13.75V17.875C13.75 13.2413 17.3663 9.625 22 9.625ZM20.625 16.5V25.5241L17.49 22.3864L15.51 24.3664L21.01 29.8664L22 30.8096L22.99 29.865L28.49 24.365L26.51 22.385L23.375 25.5241V16.5H20.625Z" fill="white"/>
</svg>
