<svg width="50" height="50" viewBox="0 0 50 50" fill="none" xmlns="http://www.w3.org/2000/svg">
<path d="M27.7083 35.9896C27.2916 35.5729 27.0916 35.0694 27.1082 34.4792C27.1263 33.8889 27.3437 33.3854 27.7603 32.9687L33.6457 27.0833H10.4166C9.82631 27.0833 9.33117 26.8833 8.93117 26.4833C8.53256 26.0847 8.33325 25.5903 8.33325 25C8.33325 24.4097 8.53256 23.9146 8.93117 23.5146C9.33117 23.116 9.82631 22.9167 10.4166 22.9167H33.6457L27.7083 16.9792C27.2916 16.5625 27.0832 16.0673 27.0832 15.4937C27.0832 14.9215 27.2916 14.4271 27.7083 14.0104C28.1249 13.5937 28.6201 13.3854 29.1937 13.3854C29.7659 13.3854 30.2603 13.5937 30.677 14.0104L40.2082 23.5417C40.4166 23.75 40.5645 23.9757 40.652 24.2187C40.7381 24.4618 40.7812 24.7222 40.7812 25C40.7812 25.2778 40.7381 25.5382 40.652 25.7812C40.5645 26.0243 40.4166 26.25 40.2082 26.4583L30.6249 36.0417C30.243 36.4236 29.7659 36.6146 29.1937 36.6146C28.6201 36.6146 28.1249 36.4062 27.7083 35.9896Z" fill="white"/>
</svg>
