<svg width="44" height="44" viewBox="0 0 44 44" fill="none" xmlns="http://www.w3.org/2000/svg">
<path fill-rule="evenodd" clip-rule="evenodd" d="M22.0001 7.33341C18.1102 7.33341 14.3797 8.87865 11.6292 11.6292C8.87865 14.3797 7.33341 18.1102 7.33341 22.0001V25.6667H11.0001C11.9725 25.6667 12.9052 26.0531 13.5928 26.7407C14.2804 27.4283 14.6667 28.361 14.6667 29.3334V34.8334C14.6667 36.2921 14.0873 37.6911 13.0558 38.7225C12.0244 39.754 10.6254 40.3334 9.16675 40.3334C7.70806 40.3334 6.30911 39.754 5.27766 38.7225C4.24621 37.6911 3.66675 36.2921 3.66675 34.8334V22.0001C3.66675 11.8746 11.8746 3.66675 22.0001 3.66675C32.1256 3.66675 40.3334 11.8746 40.3334 22.0001V34.8334C40.3334 36.2921 39.754 37.6911 38.7225 38.7225C37.6911 39.754 36.2921 40.3334 34.8334 40.3334C33.3747 40.3334 31.9758 39.754 30.9443 38.7225C29.9129 37.6911 29.3334 36.2921 29.3334 34.8334V29.3334C29.3334 28.361 29.7197 27.4283 30.4074 26.7407C31.095 26.0531 32.0276 25.6667 33.0001 25.6667H36.6667V22.0001C36.6667 18.1102 35.1215 14.3797 32.371 11.6292C29.6204 8.87865 25.8899 7.33341 22.0001 7.33341Z" fill="white"/>
</svg>
